<svg width="1294" height="959" viewBox="0 0 1294 959" fill="none" xmlns="http://www.w3.org/2000/svg">
<path d="M109.521 954.928L76.3326 907.193H39.4569V954.928H0V783.134H74.3659C87.9907 782.831 101.524 785.425 114.069 790.742C124.641 795.258 133.657 802.766 140.004 812.339C146.213 822.259 149.375 833.777 149.1 845.47C149.557 857.059 146.396 868.502 140.054 878.219C133.713 887.935 124.503 895.444 113.7 899.708L152.296 954.805L109.521 954.928ZM99.4413 823.383C91.5732 817.708 81.9589 814.972 72.2762 815.652H39.8257V875.534H72.2762C81.9737 876.179 91.5895 873.399 99.4413 867.681C102.404 864.8 104.758 861.356 106.366 857.551C107.973 853.747 108.801 849.66 108.801 845.532C108.801 841.403 107.973 837.316 106.366 833.512C104.758 829.708 102.404 826.264 99.4413 823.383Z" fill="white"/>
<path d="M218.058 937.503C210.855 929.735 205.319 920.58 201.789 910.599C198.259 900.618 196.81 890.022 197.53 879.461V783.257H237.233V877.989C237.233 908.666 250.017 924.005 275.584 924.005C280.857 924.358 286.143 923.552 291.071 921.643C295.998 919.735 300.446 916.771 304.101 912.961C311.451 902.847 314.939 890.444 313.934 877.989V783.257H353.268V879.461C353.96 890.019 352.497 900.607 348.969 910.584C345.44 920.561 339.919 929.719 332.741 937.503C325.041 944.584 315.988 950.039 306.123 953.54C296.259 957.04 285.787 958.514 275.338 957.873C264.907 958.518 254.453 957.046 244.608 953.545C234.763 950.044 225.731 944.587 218.058 937.503Z" fill="white"/>
<path d="M560.264 881.302C566.011 889.013 568.959 898.447 568.623 908.053C568.933 914.845 567.478 921.601 564.398 927.665C561.317 933.729 556.717 938.894 551.045 942.657C535.616 951.768 517.802 956.043 499.911 954.928H410.918V783.134H494.994C511.939 782.162 528.77 786.449 543.178 795.405C548.524 798.977 552.874 803.846 555.82 809.555C558.765 815.264 560.21 821.627 560.018 828.046C560.172 835.91 558.083 843.655 553.995 850.379C549.94 856.959 544.159 862.306 537.278 865.84C546.39 868.428 554.441 873.843 560.264 881.302ZM450.498 813.198V853.692H490.077C497.878 854.182 505.652 852.391 512.449 848.538C514.933 846.881 516.942 844.606 518.278 841.938C519.615 839.27 520.232 836.301 520.07 833.322C520.235 830.361 519.618 827.407 518.28 824.759C516.943 822.11 514.932 819.858 512.449 818.229C505.617 814.477 497.861 812.733 490.077 813.198H450.498ZM520.684 920.324C523.282 918.587 525.376 916.199 526.757 913.399C528.138 910.599 528.756 907.486 528.551 904.371C528.551 890.137 518.103 883.02 496.961 883.02H450.498V925.355H496.961C505.178 925.84 513.374 924.102 520.684 920.324Z" fill="white"/>
<path d="M617.298 783.257H657.124V955.05H617.298V783.257Z" fill="white"/>
<path d="M778.936 887.56L755.827 912.102V955.419H716.248V783.625H755.827V863.877L832.037 783.625H876.165L804.995 860.196L880.344 955.296H834.004L778.936 887.56Z" fill="white"/>
<path d="M945.368 946.338C931.457 939.052 919.809 928.103 911.688 914.679C903.719 900.825 899.525 885.129 899.525 869.154C899.525 853.178 903.719 837.482 911.688 823.628C919.791 810.159 931.441 799.166 945.368 791.846C960.293 784.261 976.804 780.306 993.552 780.306C1010.3 780.306 1026.81 784.261 1041.74 791.846C1055.62 799.221 1067.26 810.202 1075.42 823.628C1083.47 837.453 1087.71 853.161 1087.71 869.154C1087.71 885.146 1083.47 900.854 1075.42 914.679C1067.25 928.068 1055.61 939.007 1041.74 946.338C1026.81 953.924 1010.3 957.878 993.552 957.878C976.804 957.878 960.293 953.924 945.368 946.338ZM1021.09 917.133C1029.22 912.554 1035.9 905.796 1040.38 897.622C1044.99 888.838 1047.4 879.07 1047.4 869.154C1047.4 859.237 1044.99 849.469 1040.38 840.685C1035.9 832.511 1029.22 825.753 1021.09 821.174C1012.66 816.588 1003.21 814.185 993.613 814.185C984.015 814.185 974.569 816.588 966.141 821.174C957.875 825.698 951.057 832.461 946.474 840.685C941.865 849.469 939.457 859.237 939.457 869.154C939.457 879.07 941.865 888.838 946.474 897.622C950.957 905.796 957.642 912.554 965.772 917.133C974.224 921.645 983.66 924.005 993.245 924.005C1002.83 924.005 1012.26 921.645 1020.72 917.133H1021.09Z" fill="white"/>
<path d="M1293.84 783.257V955.05H1261.15L1175.1 850.87V955.05H1136.14V783.257H1168.96L1255 887.56V783.257H1293.84Z" fill="white"/>
<g clip-path="url(#clip0)">
<path d="M859.312 390.157C961.928 390.157 1036.16 312.57 1043.65 209.942C1043.65 205.378 1043.65 200.814 1043.65 196.374C1043.65 74.997 953.817 0 809.54 0H228.746L338.367 102.011H802.535C878.852 102.011 917.318 136.796 917.318 196.374C917.318 255.952 878.852 290.737 802.535 290.737H746.742L850.832 390.157H859.312Z" fill="white"/>
<path d="M979.87 586.161H806.099L386.418 169.237H560.066L979.87 586.161Z" fill="#02FF02"/>
<path d="M581.204 586.161H442.703V447.145L581.204 586.161Z" fill="white"/>
</g>
<defs>
<clipPath id="clip0">
<rect width="814.907" height="586.161" fill="white" transform="translate(228.746)"/>
</clipPath>
</defs>
</svg>
