<svg width="1295" height="959" viewBox="0 0 1295 959" fill="none" xmlns="http://www.w3.org/2000/svg">
<path d="M110.248 954.928L77.0595 907.193H40.1839V954.928H0.726929V783.134H75.0928C88.7177 782.831 102.251 785.425 114.796 790.742C125.368 795.258 134.384 802.766 140.731 812.339C146.94 822.259 150.102 833.777 149.827 845.47C150.284 857.059 147.123 868.502 140.781 878.219C134.439 887.935 125.23 895.444 114.427 899.708L153.023 954.805L110.248 954.928ZM100.168 823.383C92.3002 817.708 82.6858 814.972 73.0032 815.652H40.5526V875.534H73.0032C82.7007 876.179 92.3165 873.399 100.168 867.681C103.131 864.8 105.485 861.356 107.092 857.551C108.7 853.747 109.528 849.66 109.528 845.532C109.528 841.403 108.7 837.316 107.092 833.512C105.485 829.708 103.131 826.264 100.168 823.383Z" fill="#1D1D1D"/>
<path d="M218.785 937.503C211.582 929.735 206.046 920.58 202.516 910.599C198.986 900.618 197.537 890.022 198.257 879.461V783.257H237.96V877.989C237.96 908.666 250.744 924.005 276.311 924.005C281.584 924.358 286.87 923.552 291.798 921.643C296.725 919.735 301.173 916.771 304.828 912.961C312.178 902.847 315.666 890.444 314.662 877.989V783.257H353.996V879.461C354.687 890.019 353.224 900.607 349.696 910.584C346.167 920.561 340.646 929.719 333.468 937.503C325.769 944.584 316.715 950.039 306.85 953.54C296.986 957.04 286.514 958.514 276.065 957.873C265.634 958.518 255.18 957.046 245.335 953.545C235.49 950.044 226.458 944.587 218.785 937.503Z" fill="#1D1D1D"/>
<path d="M560.991 881.302C566.738 889.013 569.686 898.447 569.349 908.053C569.66 914.845 568.205 921.601 565.124 927.665C562.044 933.729 557.444 938.894 551.772 942.657C536.343 951.768 518.529 956.043 500.638 954.928H411.645V783.134H495.721C512.666 782.162 529.497 786.449 543.905 795.405C549.251 798.977 553.601 803.846 556.546 809.555C559.492 815.264 560.937 821.627 560.745 828.046C560.899 835.91 558.81 843.655 554.722 850.379C550.667 856.959 544.886 862.306 538.005 865.84C547.117 868.428 555.167 873.843 560.991 881.302ZM451.224 813.198V853.692H490.804C498.605 854.182 506.379 852.391 513.175 848.538C515.66 846.881 517.669 844.606 519.005 841.938C520.341 839.27 520.959 836.301 520.796 833.322C520.962 830.361 520.345 827.407 519.007 824.759C517.67 822.11 515.659 819.858 513.175 818.229C506.344 814.477 498.588 812.733 490.804 813.198H451.224ZM521.411 920.324C524.009 918.587 526.103 916.199 527.484 913.399C528.864 910.599 529.483 907.486 529.278 904.371C529.278 890.137 518.83 883.02 497.688 883.02H451.224V925.355H497.688C505.905 925.84 514.101 924.102 521.411 920.324Z" fill="#1D1D1D"/>
<path d="M618.025 783.257H657.851V955.05H618.025V783.257Z" fill="#1D1D1D"/>
<path d="M779.663 887.56L756.554 912.102V955.419H716.974V783.625H756.554V863.877L832.764 783.625H876.892L805.722 860.196L881.071 955.296H834.731L779.663 887.56Z" fill="#1D1D1D"/>
<path d="M946.095 946.338C932.184 939.052 920.536 928.103 912.415 914.679C904.446 900.825 900.252 885.129 900.252 869.154C900.252 853.178 904.446 837.482 912.415 823.628C920.518 810.159 932.168 799.166 946.095 791.846C961.02 784.261 977.531 780.306 994.279 780.306C1011.03 780.306 1027.54 784.261 1042.46 791.846C1056.35 799.221 1067.99 810.202 1076.14 823.628C1084.2 837.453 1088.44 853.161 1088.44 869.154C1088.44 885.146 1084.2 900.854 1076.14 914.679C1067.98 928.068 1056.34 939.007 1042.46 946.338C1027.54 953.924 1011.03 957.878 994.279 957.878C977.531 957.878 961.02 953.924 946.095 946.338ZM1021.81 917.133C1029.94 912.554 1036.63 905.796 1041.11 897.622C1045.72 888.838 1048.13 879.07 1048.13 869.154C1048.13 859.237 1045.72 849.469 1041.11 840.685C1036.63 832.511 1029.94 825.753 1021.81 821.174C1013.38 816.588 1003.94 814.185 994.34 814.185C984.742 814.185 975.296 816.588 966.868 821.174C958.602 825.698 951.784 832.461 947.201 840.685C942.592 849.469 940.184 859.237 940.184 869.154C940.184 879.07 942.592 888.838 947.201 897.622C951.684 905.796 958.369 912.554 966.499 917.133C974.951 921.645 984.387 924.005 993.972 924.005C1003.56 924.005 1012.99 921.645 1021.44 917.133H1021.81Z" fill="#1D1D1D"/>
<path d="M1294.57 783.257V955.05H1261.87L1175.83 850.87V955.05H1136.86V783.257H1169.68L1255.73 887.56V783.257H1294.57Z" fill="#1D1D1D"/>
<g clip-path="url(#clip0)">
<path d="M860.039 390.157C962.655 390.157 1036.88 312.57 1044.38 209.942C1044.38 205.378 1044.38 200.814 1044.38 196.374C1044.38 74.997 954.544 0 810.267 0H229.472L339.093 102.011H803.262C879.579 102.011 918.044 136.796 918.044 196.374C918.044 255.952 879.579 290.737 803.262 290.737H747.468L851.559 390.157H860.039Z" fill="#1D1D1D"/>
<path d="M980.597 586.161H806.826L387.145 169.237H560.793L980.597 586.161Z" fill="#02FF02"/>
<path d="M581.931 586.161H443.43V447.145L581.931 586.161Z" fill="#1D1D1D"/>
</g>
<defs>
<clipPath id="clip0">
<rect width="814.907" height="586.161" fill="white" transform="translate(229.472)"/>
</clipPath>
</defs>
</svg>
